<svg xmlns="http://www.w3.org/2000/svg" width="166" height="62" viewBox="0 0 166 62" fill="none">
    <path d="M23.5079 39.3712H11.2383V22.3069H23.5079V39.3712ZM21.2396 37.1542V35.7115H16.5996V27.5168H14.1237V28.9595H15.1032V37.1566L21.2396 37.1542Z" fill="#FF0000"/>
    <path d="M38.8717 19.5742L42.2742 34.7309L29.1798 37.6164L25.7773 22.4597L38.8717 19.5742ZM39.1811 28.4414C39.0882 28.1556 39.0193 27.8626 38.9751 27.5654C38.9238 27.256 38.8204 26.9466 38.7691 26.6893C38.4381 25.6934 37.8723 24.7917 37.1196 24.0603C36.3763 23.3765 35.397 23.0071 34.3873 23.0296C33.679 23.0268 32.9775 23.1672 32.325 23.4423C31.7336 23.6809 31.2045 24.0512 30.778 24.5252C30.3455 24.9853 30.0122 25.5292 29.7986 26.1234C29.5703 26.7695 29.4484 27.4484 29.4379 28.1336C29.4361 28.9422 29.5758 29.7449 29.8507 30.5053C30.0889 31.1767 30.4373 31.8038 30.8814 32.3608C31.3003 32.8815 31.8284 33.304 32.4283 33.5984C32.9974 33.9082 33.636 34.0679 34.2839 34.0625C34.7753 34.0518 35.262 33.9648 35.7266 33.8044C36.7231 33.5399 37.5973 32.9387 38.2009 32.1028C38.7543 31.29 39.0914 30.3496 39.1803 29.3704L36.1386 29.9891C36.1015 30.1431 36.0316 30.2873 35.9336 30.4118C35.8357 30.5363 35.712 30.6382 35.5711 30.7105C35.2445 30.904 34.867 30.9939 34.4882 30.9686C34.1458 30.9625 33.8098 30.874 33.5088 30.7105C33.3406 30.6086 33.1947 30.4739 33.0796 30.3144C32.9645 30.155 32.8826 29.9741 32.8387 29.7824L39.1811 28.4414ZM32.6888 27.256C32.7008 27.0856 32.7483 26.9197 32.8282 26.7689C32.9081 26.618 33.0187 26.4855 33.1529 26.3799C33.4206 26.1789 33.7463 26.0704 34.0811 26.0705C34.2966 26.0728 34.5086 26.1258 34.6998 26.2252C34.9018 26.324 35.0651 26.4873 35.1639 26.6893L32.6888 27.256Z" fill="#FF0000"/>
    <path d="M54.6967 41.1729L45.1081 42.2557L42.8398 27.0477L53.0472 25.8623L54.13 36.3277C53.6659 36.3277 53.3566 36.0183 53.254 35.4517C53.0993 34.6782 52.9446 34.0089 52.8412 33.3381C52.7381 32.7193 52.6349 32.1521 52.5318 31.6364C52.4142 31.0877 52.2416 30.5522 52.0164 30.0382C51.8615 29.6698 51.6335 29.3366 51.3463 29.0588C51.1175 28.8223 50.8344 28.6454 50.5216 28.5434C50.2059 28.4378 49.8749 28.3856 49.5421 28.3887C48.5928 28.3194 47.6528 28.6143 46.9132 29.2135C46.2216 29.8876 45.7843 30.7802 45.6756 31.7398L46.9132 31.9458C46.9276 31.6323 47.0051 31.325 47.1411 31.0421C47.2771 30.7593 47.4688 30.5068 47.7047 30.2998C47.9406 30.0928 48.2158 29.9356 48.5139 29.8375C48.812 29.7393 49.1268 29.7024 49.4395 29.7288C49.6435 29.7179 49.8473 29.7541 50.0351 29.8346C50.2229 29.915 50.3896 30.0377 50.5224 30.1929C50.8635 30.7438 51.0913 31.3571 51.1925 31.9971C50.419 32.1005 49.7497 32.2031 49.0789 32.3578C48.4759 32.4769 47.8995 32.7039 47.3772 33.0279C46.93 33.2867 46.5434 33.6381 46.2431 34.0586C45.9687 34.4894 45.8253 34.9906 45.8303 35.5013C45.8393 35.7958 45.8739 36.0889 45.9337 36.3774C45.9967 36.6837 46.139 36.9681 46.3465 37.2022C46.5642 37.4753 46.8481 37.6883 47.1712 37.821C47.6131 38.0002 48.0867 38.088 48.5635 38.079C49.4128 38.1151 50.2592 37.9563 51.0378 37.615C51.5691 37.3961 52.0194 37.0178 52.3266 36.5321C52.4226 36.8747 52.6433 37.1689 52.9454 37.3569C53.2669 37.5147 53.6182 37.6027 53.9761 37.615H54.1821L54.6967 41.1729ZM51.8609 35.402C51.6409 35.8308 51.3229 36.2018 50.9328 36.4848C50.3218 36.831 49.6234 36.9922 48.9226 36.9489C48.4394 36.9882 47.9597 36.8405 47.5824 36.5361C47.3195 36.2363 47.173 35.852 47.1696 35.4533C47.1711 35.1879 47.2236 34.9253 47.3243 34.6798C47.4524 34.4111 47.6479 34.1803 47.8918 34.0097C48.2917 33.7714 48.7267 33.5975 49.1806 33.4943C49.9077 33.2988 50.649 33.1608 51.3976 33.0816L51.8609 35.402Z" fill="#FF0000"/>
    <path d="M60.7267 27.3082V37.619H54.6953V27.2048L60.7267 27.3082ZM60.4173 28.8552C60.2627 28.8552 60.108 28.8039 59.9533 28.8039H59.5926C59.1704 28.788 58.7494 28.8581 58.355 29.0099C57.9815 29.1273 57.6559 29.3624 57.4269 29.6799V28.8552H55.674L55.6227 29.9893H56.4474L56.3961 36.2788H57.6337L57.7371 31.4328C57.7884 30.4534 58.4584 29.9901 59.8507 29.9901H60.3661L60.4173 28.8552Z" fill="#FF0000"/>
    <path d="M76.8653 26.5859L77.9481 40.1957L63.7709 41.3339L62.6367 27.7241L76.8653 26.5859ZM65.8845 29.3696L66.0392 31.4832H67.2246L67.6374 38.7522L69.751 38.6488L69.4416 32.308C69.473 32.1113 69.544 31.923 69.6504 31.7547C69.7567 31.5863 69.8962 31.4413 70.0604 31.3285C70.5043 31.0403 71.0263 30.8961 71.5552 30.9157C71.7346 30.9038 71.9146 30.9298 72.0833 30.9919C72.252 31.0541 72.4058 31.151 72.5347 31.2764C72.8098 31.573 72.9737 31.9556 72.9987 32.3593L73.4115 38.9582L75.6285 38.8035L75.1645 32.3593C75.1473 31.3472 74.7624 30.376 74.0816 29.6269C73.7581 29.3244 73.3766 29.0907 72.96 28.9401C72.5435 28.7895 72.1008 28.7251 71.6586 28.7508C71.0785 28.7622 70.504 28.8667 69.957 29.0602C69.4064 29.245 68.9106 29.564 68.5142 29.9884L68.463 29.267L65.8845 29.3696Z" fill="#FF0000"/>
    <path d="M91.9689 22.7195L90.4219 36.9993L78.9258 35.7618L80.4206 21.4819L91.9689 22.7195ZM89.8553 24.575L81.7599 23.7502L81.6052 25.2451L82.9975 25.3998L81.9675 34.6268L88.9271 35.4003L89.0818 33.9055L83.6171 33.2867L83.9264 29.9355L89.0305 30.503L89.1852 29.0082L84.1356 28.4407L84.445 25.5552L89.6549 26.1227L89.8553 24.575Z" fill="#FF0000"/>
    <path d="M108.518 23.9571L108.105 39.6805L92.6914 39.3198L93.1042 23.6477L108.518 23.9571ZM105.94 31.3311C105.966 30.4577 105.844 29.5863 105.58 28.7534C105.38 28.0298 104.967 27.3831 104.394 26.8979C103.769 26.3598 103.029 25.9719 102.23 25.7637C101.137 25.4737 100.01 25.3348 98.8791 25.3509H95.4254L95.3741 26.5364L96.921 26.5877L96.6629 36.9497C97.2817 37.0531 97.9005 37.0531 98.4672 37.1044H100.169C100.94 37.1189 101.708 36.9967 102.437 36.7437C103.11 36.4844 103.736 36.1188 104.293 35.6609C104.847 35.1699 105.272 34.5504 105.53 33.8566C105.805 33.0427 105.944 32.1893 105.943 31.3302L105.94 31.3311ZM104.809 31.279C104.844 31.8962 104.758 32.5144 104.555 33.0982C104.351 33.682 104.035 34.22 103.623 34.6814C103.157 35.1198 102.604 35.4562 102.001 35.6693C101.397 35.8824 100.756 35.9674 100.117 35.9189H99.1356C98.8262 35.9189 98.3622 35.8677 97.7955 35.8156L98.0015 26.5877H99.651C101.455 26.5877 102.744 27.0004 103.569 27.8252C104.003 28.2839 104.337 28.8278 104.55 29.4223C104.763 30.0167 104.85 30.649 104.806 31.279" fill="#FF0000"/>
    <path d="M115.837 38.5462L110.733 39.4222L108.672 27.9774L113.776 27.1013L115.837 38.5462ZM113.879 36.6907L113.466 34.4737L111.816 34.7831L112.177 37.0001L113.879 36.6907Z" fill="black"/>
    <path d="M124.397 37.4634L116.664 36.072L118.674 23.1836L126.871 24.6784L125.171 33.5969C125.081 33.5844 124.997 33.5494 124.924 33.4953C124.852 33.4412 124.795 33.3697 124.758 33.2875C124.694 33.1049 124.659 32.9135 124.654 32.7201C124.758 31.8953 124.809 31.1731 124.86 30.556C124.912 29.9388 124.964 29.4218 124.964 28.9577C125.007 28.5582 124.964 28.1542 124.84 27.7721C124.716 27.39 124.512 27.0385 124.242 26.7407C123.652 26.293 122.92 26.0733 122.18 26.122C121.653 26.1171 121.135 26.2601 120.685 26.5347C120.205 26.9052 119.817 27.3817 119.551 27.927L120.531 28.3398C120.67 27.9847 120.91 27.6783 121.222 27.4584C121.533 27.2384 121.902 27.1146 122.284 27.1022C122.495 27.0781 122.71 27.0977 122.914 27.1597C123.118 27.2218 123.307 27.3249 123.469 27.4629C123.748 27.8117 123.877 28.2565 123.83 28.7005V29.3705C123.169 29.2306 122.495 29.1616 121.819 29.1645C121.422 29.1711 121.026 29.2057 120.634 29.2679C120.284 29.3419 119.952 29.482 119.655 29.6807C119.379 29.888 119.15 30.1516 118.984 30.4542C118.809 30.843 118.721 31.2653 118.726 31.6917C118.733 31.9396 118.786 32.1841 118.881 32.4131C118.989 32.6793 119.167 32.911 119.396 33.0832C119.693 33.3062 120.024 33.4802 120.376 33.5985C120.893 33.7566 121.434 33.8262 121.974 33.8045C122.324 33.8115 122.672 33.7592 123.005 33.6498C123.258 33.568 123.488 33.4264 123.675 33.237C123.678 33.404 123.716 33.5683 123.787 33.7194C123.858 33.8704 123.961 34.0046 124.088 34.1131C124.328 34.311 124.61 34.4521 124.912 34.5259L124.397 37.4634ZM123.778 30.4005C123.785 30.6764 123.768 30.9523 123.727 31.2252C123.676 31.5346 123.676 31.8953 123.624 32.3081C123.458 32.5238 123.247 32.6999 123.005 32.8235C122.709 32.9379 122.393 32.9906 122.077 32.9781C121.497 33.0175 120.92 32.8731 120.427 32.5654C120.276 32.4731 120.149 32.3449 120.06 32.192C119.97 32.0392 119.919 31.8665 119.912 31.6893C119.905 31.4734 119.949 31.2589 120.039 31.0625C120.129 30.8662 120.263 30.6934 120.431 30.5576C120.875 30.2693 121.397 30.1252 121.926 30.1448C122.202 30.1377 122.478 30.1549 122.751 30.1961C123.085 30.3046 123.431 30.3737 123.782 30.4021" fill="black"/>
    <path d="M138.677 27.2048L140.326 40.9693L129.088 42.3094L127.387 28.339L138.677 27.2048ZM138.058 33.5977C138.063 33.0581 137.993 32.5204 137.852 31.9995C137.7 31.4807 137.492 30.9796 137.233 30.5047C136.941 30.0668 136.574 29.6831 136.151 29.3705C135.673 29.0723 135.115 28.9282 134.552 28.9578C134.054 28.9448 133.559 29.0508 133.11 29.2671C132.71 29.4858 132.359 29.7839 132.079 30.1432L132.028 29.3697L129.399 29.6278L129.657 31.7919L130.43 31.7406L131.41 40.5044L133.574 40.2984L133.161 37.0507C133.64 37.3969 134.219 37.5778 134.81 37.5661C135.259 37.574 135.703 37.4675 136.099 37.2567C136.497 37.0571 136.848 36.7761 137.13 36.4319C137.414 36.055 137.639 35.6379 137.8 35.1944C137.965 34.6774 138.052 34.1387 138.058 33.5961V33.5977ZM134.398 31.1732C134.638 31.1619 134.875 31.2347 135.068 31.3791C135.264 31.5301 135.423 31.7243 135.532 31.9466C135.648 32.1932 135.735 32.4528 135.79 32.7201C135.846 32.9745 135.881 33.2333 135.893 33.4936C135.923 33.984 135.796 34.4713 135.533 34.8858C135.434 35.0435 135.298 35.1735 135.135 35.2637C134.973 35.3539 134.79 35.4012 134.604 35.4012C134.378 35.4065 134.154 35.3521 133.955 35.2435C133.755 35.1349 133.588 34.9759 133.47 34.7824C133.153 34.2744 133.008 33.6776 133.057 33.0808C133.028 32.5903 133.154 32.1031 133.418 31.6885C133.508 31.5122 133.651 31.3681 133.826 31.2758C134.002 31.1836 134.201 31.1477 134.398 31.1732Z" fill="black"/>
    <path d="M154.658 26.7919V42.1546H142.027V26.5859L154.658 26.7919ZM153.73 32.9267C153.799 31.6744 153.435 30.4365 152.699 29.4209C152.357 28.9898 151.916 28.6475 151.414 28.4231C150.912 28.1988 150.362 28.0989 149.813 28.1321C149.354 28.1331 148.9 28.2207 148.473 28.3902C148.088 28.5645 147.738 28.8091 147.442 29.1115V28.2355L144.557 28.1842V30.6072H145.382L145.33 40.4025L147.753 40.4538V36.847C148.049 37.1259 148.397 37.3426 148.778 37.4843C149.159 37.6259 149.564 37.6897 149.97 37.6717C150.475 37.6808 150.972 37.5564 151.413 37.311C151.877 37.0556 152.281 36.7042 152.599 36.2803C152.938 35.8094 153.199 35.2871 153.372 34.7334C153.63 34.1678 153.753 33.5503 153.733 32.9292L153.73 32.9267ZM151.31 32.8779C151.326 33.5044 151.184 34.1248 150.897 34.6821C150.79 34.8784 150.634 35.0435 150.445 35.161C150.255 35.2785 150.037 35.3444 149.814 35.3521C149.571 35.3703 149.328 35.3223 149.11 35.2134C148.892 35.1044 148.708 34.9386 148.577 34.7334C148.259 34.2254 148.115 33.6286 148.164 33.0318C148.145 32.4147 148.306 31.8056 148.628 31.2788C148.754 31.0617 148.934 30.881 149.151 30.7545C149.368 30.6281 149.614 30.5602 149.865 30.5575C150.099 30.545 150.332 30.6019 150.534 30.7211C150.735 30.8404 150.898 31.0165 151 31.2275C151.225 31.7471 151.331 32.3109 151.309 32.8771" fill="black"/>
    <path d="M166 61.4354H0V0.5H166V61.4354ZM3.14516 58.3423H162.856V3.59306H3.14435L3.14516 58.3423Z" fill="black"/>
    <path d="M149.193 18.6982L146.307 16.8427L143.111 18.1828L143.987 14.8317L141.719 12.2027L145.172 12.048L146.977 9.05835L148.21 12.3053L151.561 13.0788L148.88 15.2958L149.193 18.6982Z" fill="#FF0000"/>
    <path d="M112.794 56.1774L110.525 53.4964L107.02 53.857L108.875 50.9187L107.432 47.7222L110.835 48.547L113.464 46.1753L113.722 49.6811L116.711 51.4341L113.515 52.7742L112.794 56.1774Z" fill="black"/>
    <path d="M53.0495 55.5072L50.2137 54.0645L47.3779 55.5593L47.8933 52.415L45.625 50.1467L48.7694 49.6826L50.1616 46.7971L51.6043 49.6826L54.8008 50.0954L52.4812 52.3637L53.0495 55.5072Z" fill="#FF0000"/>
    <path d="M20.4672 17.3062L17.4254 16.3781L14.9511 18.3883L14.8998 15.2439L12.2188 13.491L15.2084 12.4602L16.0332 9.36719L17.9408 11.8936L21.0851 11.7389L19.3322 14.3679L20.4672 17.3062Z" fill="black"/>
    <path d="M100.42 13.7498L97.8428 11.9969L94.9573 13.0797L95.8334 10.1413L93.9258 7.71836L97.0188 7.66706L98.6684 5.03809L99.6991 7.97645L102.69 8.74991L100.267 10.6575L100.42 13.7498Z" fill="#FF0000"/>
</svg>